<svg width="40" height="44" viewBox="0 0 40 44" fill="none" xmlns="http://www.w3.org/2000/svg">
<path d="M19.0323 43.3333L19.5161 34.0538C19.5232 33.9012 19.4959 33.7489 19.4363 33.6082C19.3767 33.4676 19.2863 33.3421 19.1718 33.241C19.0573 33.1399 18.9215 33.0657 18.7746 33.024C18.6276 32.9823 18.4731 32.9741 18.3226 33L9.08602 34.6237L10.3333 31.1828C10.3839 31.0459 10.3904 30.8966 10.3518 30.7558C10.3133 30.615 10.2316 30.4898 10.1183 30.3978L0 22.2043L2.27957 21.1398C2.43353 21.067 2.55563 20.9406 2.62295 20.7842C2.69026 20.6278 2.69816 20.4521 2.64516 20.2903L0.645161 14.1398L6.47312 15.3763C6.63101 15.4093 6.79543 15.3866 6.93849 15.3121C7.08156 15.2376 7.19446 15.116 7.25806 14.9677L8.3871 12.3118L12.9355 17.1935C13.0395 17.3032 13.1762 17.3763 13.3253 17.4017C13.4743 17.4271 13.6275 17.4035 13.762 17.3344C13.8964 17.2654 14.0049 17.1546 14.0711 17.0187C14.1372 16.8828 14.1576 16.7291 14.129 16.5806L11.9355 5.26882L15.4516 7.30107C15.5342 7.34946 15.6258 7.38038 15.7208 7.39191C15.8157 7.40345 15.9121 7.39535 16.0038 7.36814C16.0956 7.34092 16.1807 7.29515 16.2541 7.23368C16.3274 7.17221 16.3873 7.09633 16.4301 7.01075L20 0L23.5699 7.01075C23.6127 7.09633 23.6726 7.17221 23.7459 7.23368C23.8193 7.29515 23.9044 7.34092 23.9962 7.36814C24.0879 7.39535 24.1843 7.40345 24.2792 7.39191C24.3742 7.38038 24.4658 7.34946 24.5484 7.30107L28.0645 5.26882L25.871 16.5806C25.8424 16.7291 25.8627 16.8828 25.9289 17.0187C25.9951 17.1546 26.1036 17.2654 26.238 17.3344C26.3725 17.4035 26.5257 17.4271 26.6747 17.4017C26.8238 17.3763 26.9605 17.3032 27.0645 17.1935L31.6129 12.3118L32.7419 14.9677C32.8055 15.116 32.9184 15.2376 33.0615 15.3121C33.2046 15.3866 33.369 15.4093 33.5269 15.3763L39.3548 14.1398L37.3548 20.2903C37.3018 20.4521 37.3097 20.6278 37.3771 20.7842C37.4444 20.9406 37.5665 21.067 37.7204 21.1398L40 22.2043L29.8817 30.3978C29.7684 30.4898 29.6867 30.615 29.6482 30.7558C29.6096 30.8966 29.6161 31.0459 29.6667 31.1828L30.914 34.6237L21.6774 33C21.5269 32.9741 21.3724 32.9823 21.2254 33.024C21.0785 33.0657 20.9427 33.1399 20.8282 33.241C20.7137 33.3421 20.6233 33.4676 20.5637 33.6082C20.5041 33.7489 20.4768 33.9012 20.4839 34.0538L20.9677 43.3333H19.0323Z" fill="#FF0000"/>
</svg>
