<svg width="20" height="20" viewBox="0 0 20 20" fill="none" xmlns="http://www.w3.org/2000/svg">
<path d="M4.58333 6.66667C5.73392 6.66667 6.66667 5.73392 6.66667 4.58333C6.66667 3.43274 5.73392 2.5 4.58333 2.5C3.43274 2.5 2.5 3.43274 2.5 4.58333C2.5 5.73392 3.43274 6.66667 4.58333 6.66667ZM4.58333 6.66667V13.3333M4.58333 13.3333C3.43274 13.3333 2.5 14.2661 2.5 15.4167C2.5 16.5672 3.43274 17.5 4.58333 17.5C5.73392 17.5 6.66667 16.5672 6.66667 15.4167C6.66667 14.2661 5.73392 13.3333 4.58333 13.3333ZM15.4167 6.66667C16.5672 6.66667 17.5 5.73392 17.5 4.58333C17.5 3.43274 16.5672 2.5 15.4167 2.5C14.2661 2.5 13.3333 3.43274 13.3333 4.58333C13.3333 5.73392 14.2661 6.66667 15.4167 6.66667ZM15.4167 6.66667C15.4167 7.44164 15.4167 7.82913 15.3315 8.14705C15.1003 9.00975 14.4264 9.68367 13.5638 9.91483C13.2458 10 12.8583 10 12.0833 10H7.08333C5.70262 10 4.58333 11.1192 4.58333 12.5" stroke="#292929" stroke-width="1.66667" stroke-linecap="round" stroke-linejoin="round"/>
</svg>
